<svg class="{{ include.class }}" viewBox="0 0 13 13" fill="none" xmlns="http://www.w3.org/2000/svg">
<path fill-rule="evenodd" clip-rule="evenodd" d="M0.656874 0.000938353C0.373797 0.0285864 0.132829 0.218575 0.0399914 0.487445C-0.0530995 0.756315 0.0194448 1.05461 0.22516 1.25095L5.15691 6.19413L0.22516 11.1259C-0.0604506 11.4115 -0.0604506 11.8744 0.22516 12.16C0.51077 12.4457 0.973668 12.4457 1.25932 12.16L6.2025 7.21686L11.1342 12.16C11.4199 12.4457 11.8828 12.4457 12.1681 12.16C12.4538 11.8744 12.4538 11.4115 12.1684 11.1259L7.22522 6.19413L12.1684 1.25095C12.3853 1.04143 12.4505 0.719549 12.332 0.442055C12.2133 0.164562 11.9358 -0.0109708 11.6342 0.000951234C11.4458 0.00551695 11.2667 0.0828794 11.1343 0.217061L6.20251 5.14882L1.25933 0.217061C1.12134 0.0773015 0.932629 -0.00057474 0.736551 0.000951234C0.709917 -0.000317078 0.683538 -0.000317078 0.656902 0.000951234L0.656874 0.000938353Z" fill="white"/>
</svg>
